<mxfile host="app.diagrams.net" modified="2023-07-11T08:04:42.582Z" agent="Mozilla/5.0 (Windows NT 10.0; Win64; x64) AppleWebKit/537.36 (KHTML, like Gecko) Chrome/114.0.0.0 Safari/537.36" etag="3OpwD8fmDRR73XzzPyOz" version="21.6.1" type="device">
  <diagram name="Page-1" id="qfNRdl5CPQ4ew-JINthI">
    <mxGraphModel dx="1858" dy="1777" grid="1" gridSize="10" guides="1" tooltips="1" connect="1" arrows="1" fold="1" page="1" pageScale="1" pageWidth="827" pageHeight="1169" math="0" shadow="0">
      <root>
        <mxCell id="0" />
        <mxCell id="1" parent="0" />
        <mxCell id="Jk3VmdqZ1B0lNmlgHPxo-1" value="USER Entity" style="rounded=0;whiteSpace=wrap;html=1;" vertex="1" parent="1">
          <mxGeometry x="160" y="200" width="80" height="40" as="geometry" />
        </mxCell>
        <mxCell id="Jk3VmdqZ1B0lNmlgHPxo-2" value="CONTACT" style="rounded=0;whiteSpace=wrap;html=1;" vertex="1" parent="1">
          <mxGeometry x="600" y="200" width="100" height="40" as="geometry" />
        </mxCell>
        <mxCell id="Jk3VmdqZ1B0lNmlgHPxo-3" value="&lt;u&gt;id&amp;nbsp;&lt;/u&gt;" style="ellipse;whiteSpace=wrap;html=1;" vertex="1" parent="1">
          <mxGeometry x="-40" y="60" width="80" height="50" as="geometry" />
        </mxCell>
        <mxCell id="Jk3VmdqZ1B0lNmlgHPxo-4" value="name" style="ellipse;whiteSpace=wrap;html=1;" vertex="1" parent="1">
          <mxGeometry x="20" y="10" width="80" height="50" as="geometry" />
        </mxCell>
        <mxCell id="Jk3VmdqZ1B0lNmlgHPxo-5" value="email" style="ellipse;whiteSpace=wrap;html=1;" vertex="1" parent="1">
          <mxGeometry x="120" y="-10" width="80" height="50" as="geometry" />
        </mxCell>
        <mxCell id="Jk3VmdqZ1B0lNmlgHPxo-6" value="password" style="ellipse;whiteSpace=wrap;html=1;" vertex="1" parent="1">
          <mxGeometry x="220" width="80" height="50" as="geometry" />
        </mxCell>
        <mxCell id="Jk3VmdqZ1B0lNmlgHPxo-7" value="description" style="ellipse;whiteSpace=wrap;html=1;" vertex="1" parent="1">
          <mxGeometry x="-60" y="130" width="80" height="50" as="geometry" />
        </mxCell>
        <mxCell id="Jk3VmdqZ1B0lNmlgHPxo-8" value="profile photo/image" style="ellipse;whiteSpace=wrap;html=1;" vertex="1" parent="1">
          <mxGeometry x="300" y="40" width="80" height="50" as="geometry" />
        </mxCell>
        <mxCell id="Jk3VmdqZ1B0lNmlgHPxo-9" value="role" style="ellipse;whiteSpace=wrap;html=1;" vertex="1" parent="1">
          <mxGeometry x="320" y="100" width="80" height="50" as="geometry" />
        </mxCell>
        <mxCell id="Jk3VmdqZ1B0lNmlgHPxo-10" value="enabled" style="ellipse;whiteSpace=wrap;html=1;" vertex="1" parent="1">
          <mxGeometry x="-70" y="200" width="80" height="50" as="geometry" />
        </mxCell>
        <mxCell id="Jk3VmdqZ1B0lNmlgHPxo-11" value="" style="endArrow=none;html=1;rounded=0;entryX=0.5;entryY=1;entryDx=0;entryDy=0;exitX=0.25;exitY=1;exitDx=0;exitDy=0;exitPerimeter=0;" edge="1" parent="1" source="Jk3VmdqZ1B0lNmlgHPxo-6" target="Jk3VmdqZ1B0lNmlgHPxo-5">
          <mxGeometry width="50" height="50" relative="1" as="geometry">
            <mxPoint x="430" y="330" as="sourcePoint" />
            <mxPoint x="480" y="280" as="targetPoint" />
            <Array as="points">
              <mxPoint x="200" y="200" />
            </Array>
          </mxGeometry>
        </mxCell>
        <mxCell id="Jk3VmdqZ1B0lNmlgHPxo-12" value="" style="endArrow=none;html=1;rounded=0;entryX=1;entryY=1;entryDx=0;entryDy=0;exitX=0;exitY=0.8;exitDx=0;exitDy=0;exitPerimeter=0;" edge="1" parent="1" source="Jk3VmdqZ1B0lNmlgHPxo-8" target="Jk3VmdqZ1B0lNmlgHPxo-4">
          <mxGeometry width="50" height="50" relative="1" as="geometry">
            <mxPoint x="250" y="60" as="sourcePoint" />
            <mxPoint x="170" y="50" as="targetPoint" />
            <Array as="points">
              <mxPoint x="200" y="200" />
            </Array>
          </mxGeometry>
        </mxCell>
        <mxCell id="Jk3VmdqZ1B0lNmlgHPxo-16" value="" style="endArrow=none;html=1;rounded=0;exitX=0.5;exitY=0;exitDx=0;exitDy=0;" edge="1" parent="1" source="Jk3VmdqZ1B0lNmlgHPxo-1" target="Jk3VmdqZ1B0lNmlgHPxo-9">
          <mxGeometry width="50" height="50" relative="1" as="geometry">
            <mxPoint x="430" y="330" as="sourcePoint" />
            <mxPoint x="480" y="280" as="targetPoint" />
          </mxGeometry>
        </mxCell>
        <mxCell id="Jk3VmdqZ1B0lNmlgHPxo-17" value="" style="endArrow=none;html=1;rounded=0;entryX=1;entryY=1;entryDx=0;entryDy=0;" edge="1" parent="1" target="Jk3VmdqZ1B0lNmlgHPxo-3">
          <mxGeometry width="50" height="50" relative="1" as="geometry">
            <mxPoint x="200" y="200" as="sourcePoint" />
            <mxPoint x="338" y="150" as="targetPoint" />
          </mxGeometry>
        </mxCell>
        <mxCell id="Jk3VmdqZ1B0lNmlgHPxo-18" value="" style="endArrow=none;html=1;rounded=0;entryX=1;entryY=0.5;entryDx=0;entryDy=0;" edge="1" parent="1" target="Jk3VmdqZ1B0lNmlgHPxo-7">
          <mxGeometry width="50" height="50" relative="1" as="geometry">
            <mxPoint x="200" y="200" as="sourcePoint" />
            <mxPoint x="38" y="113" as="targetPoint" />
          </mxGeometry>
        </mxCell>
        <mxCell id="Jk3VmdqZ1B0lNmlgHPxo-19" value="" style="endArrow=none;html=1;rounded=0;entryX=1;entryY=0.5;entryDx=0;entryDy=0;exitX=0;exitY=0;exitDx=0;exitDy=0;" edge="1" parent="1" source="Jk3VmdqZ1B0lNmlgHPxo-1" target="Jk3VmdqZ1B0lNmlgHPxo-10">
          <mxGeometry width="50" height="50" relative="1" as="geometry">
            <mxPoint x="200" y="200" as="sourcePoint" />
            <mxPoint x="30" y="165" as="targetPoint" />
          </mxGeometry>
        </mxCell>
        <mxCell id="Jk3VmdqZ1B0lNmlgHPxo-20" value="&lt;u&gt;cid&lt;/u&gt;" style="ellipse;whiteSpace=wrap;html=1;" vertex="1" parent="1">
          <mxGeometry x="470" width="80" height="50" as="geometry" />
        </mxCell>
        <mxCell id="Jk3VmdqZ1B0lNmlgHPxo-21" value="name" style="ellipse;whiteSpace=wrap;html=1;" vertex="1" parent="1">
          <mxGeometry x="570" y="-20" width="80" height="50" as="geometry" />
        </mxCell>
        <mxCell id="Jk3VmdqZ1B0lNmlgHPxo-22" value="nick_name" style="ellipse;whiteSpace=wrap;html=1;" vertex="1" parent="1">
          <mxGeometry x="680" y="-20" width="80" height="50" as="geometry" />
        </mxCell>
        <mxCell id="Jk3VmdqZ1B0lNmlgHPxo-23" value="work" style="ellipse;whiteSpace=wrap;html=1;" vertex="1" parent="1">
          <mxGeometry x="430" y="70" width="80" height="50" as="geometry" />
        </mxCell>
        <mxCell id="Jk3VmdqZ1B0lNmlgHPxo-24" value="email" style="ellipse;whiteSpace=wrap;html=1;" vertex="1" parent="1">
          <mxGeometry x="780" width="80" height="50" as="geometry" />
        </mxCell>
        <mxCell id="Jk3VmdqZ1B0lNmlgHPxo-25" value="image" style="ellipse;whiteSpace=wrap;html=1;" vertex="1" parent="1">
          <mxGeometry x="810" y="70" width="80" height="50" as="geometry" />
        </mxCell>
        <mxCell id="Jk3VmdqZ1B0lNmlgHPxo-26" value="long_description" style="ellipse;whiteSpace=wrap;html=1;" vertex="1" parent="1">
          <mxGeometry x="780" y="200" width="100" height="50" as="geometry" />
        </mxCell>
        <mxCell id="Jk3VmdqZ1B0lNmlgHPxo-27" value="phone_no" style="ellipse;whiteSpace=wrap;html=1;" vertex="1" parent="1">
          <mxGeometry x="827" y="140" width="80" height="50" as="geometry" />
        </mxCell>
        <mxCell id="Jk3VmdqZ1B0lNmlgHPxo-29" value="" style="endArrow=none;html=1;rounded=0;entryX=0.5;entryY=0;entryDx=0;entryDy=0;exitX=0.6;exitY=0.98;exitDx=0;exitDy=0;exitPerimeter=0;" edge="1" parent="1" source="Jk3VmdqZ1B0lNmlgHPxo-21" target="Jk3VmdqZ1B0lNmlgHPxo-2">
          <mxGeometry width="50" height="50" relative="1" as="geometry">
            <mxPoint x="430" y="330" as="sourcePoint" />
            <mxPoint x="480" y="280" as="targetPoint" />
          </mxGeometry>
        </mxCell>
        <mxCell id="Jk3VmdqZ1B0lNmlgHPxo-30" value="" style="endArrow=none;html=1;rounded=0;exitX=0.288;exitY=0.94;exitDx=0;exitDy=0;exitPerimeter=0;" edge="1" parent="1" source="Jk3VmdqZ1B0lNmlgHPxo-22">
          <mxGeometry width="50" height="50" relative="1" as="geometry">
            <mxPoint x="628" y="45" as="sourcePoint" />
            <mxPoint x="660" y="200" as="targetPoint" />
          </mxGeometry>
        </mxCell>
        <mxCell id="Jk3VmdqZ1B0lNmlgHPxo-31" value="" style="endArrow=none;html=1;rounded=0;entryX=0.67;entryY=-0.05;entryDx=0;entryDy=0;entryPerimeter=0;" edge="1" parent="1" source="Jk3VmdqZ1B0lNmlgHPxo-24" target="Jk3VmdqZ1B0lNmlgHPxo-2">
          <mxGeometry width="50" height="50" relative="1" as="geometry">
            <mxPoint x="713" y="37" as="sourcePoint" />
            <mxPoint x="670" y="220" as="targetPoint" />
          </mxGeometry>
        </mxCell>
        <mxCell id="Jk3VmdqZ1B0lNmlgHPxo-32" value="" style="endArrow=none;html=1;rounded=0;entryX=0.75;entryY=0;entryDx=0;entryDy=0;exitX=0;exitY=0.5;exitDx=0;exitDy=0;" edge="1" parent="1" source="Jk3VmdqZ1B0lNmlgHPxo-25" target="Jk3VmdqZ1B0lNmlgHPxo-2">
          <mxGeometry width="50" height="50" relative="1" as="geometry">
            <mxPoint x="813" y="58" as="sourcePoint" />
            <mxPoint x="680" y="230" as="targetPoint" />
          </mxGeometry>
        </mxCell>
        <mxCell id="Jk3VmdqZ1B0lNmlgHPxo-33" value="" style="endArrow=none;html=1;rounded=0;entryX=1;entryY=0;entryDx=0;entryDy=0;exitX=0.038;exitY=0.2;exitDx=0;exitDy=0;exitPerimeter=0;" edge="1" parent="1" source="Jk3VmdqZ1B0lNmlgHPxo-27" target="Jk3VmdqZ1B0lNmlgHPxo-2">
          <mxGeometry width="50" height="50" relative="1" as="geometry">
            <mxPoint x="820" y="105" as="sourcePoint" />
            <mxPoint x="690" y="240" as="targetPoint" />
          </mxGeometry>
        </mxCell>
        <mxCell id="Jk3VmdqZ1B0lNmlgHPxo-34" value="" style="endArrow=none;html=1;rounded=0;entryX=1;entryY=0.25;entryDx=0;entryDy=0;exitX=0.06;exitY=0.28;exitDx=0;exitDy=0;exitPerimeter=0;" edge="1" parent="1" source="Jk3VmdqZ1B0lNmlgHPxo-26" target="Jk3VmdqZ1B0lNmlgHPxo-2">
          <mxGeometry width="50" height="50" relative="1" as="geometry">
            <mxPoint x="840" y="160" as="sourcePoint" />
            <mxPoint x="710" y="210" as="targetPoint" />
          </mxGeometry>
        </mxCell>
        <mxCell id="Jk3VmdqZ1B0lNmlgHPxo-35" value="" style="endArrow=none;html=1;rounded=0;entryX=0.5;entryY=0;entryDx=0;entryDy=0;exitX=1;exitY=1;exitDx=0;exitDy=0;" edge="1" parent="1" source="Jk3VmdqZ1B0lNmlgHPxo-20" target="Jk3VmdqZ1B0lNmlgHPxo-2">
          <mxGeometry width="50" height="50" relative="1" as="geometry">
            <mxPoint x="628" y="45" as="sourcePoint" />
            <mxPoint x="660" y="210" as="targetPoint" />
          </mxGeometry>
        </mxCell>
        <mxCell id="Jk3VmdqZ1B0lNmlgHPxo-36" value="" style="endArrow=none;html=1;rounded=0;exitX=1;exitY=0.5;exitDx=0;exitDy=0;" edge="1" parent="1" source="Jk3VmdqZ1B0lNmlgHPxo-23">
          <mxGeometry width="50" height="50" relative="1" as="geometry">
            <mxPoint x="548" y="53" as="sourcePoint" />
            <mxPoint x="650" y="200" as="targetPoint" />
          </mxGeometry>
        </mxCell>
        <mxCell id="Jk3VmdqZ1B0lNmlgHPxo-37" value="HAS" style="rhombus;whiteSpace=wrap;html=1;" vertex="1" parent="1">
          <mxGeometry x="390" y="260" width="80" height="80" as="geometry" />
        </mxCell>
        <mxCell id="Jk3VmdqZ1B0lNmlgHPxo-38" value="" style="endArrow=none;html=1;rounded=0;exitX=1;exitY=1;exitDx=0;exitDy=0;entryX=0;entryY=0.5;entryDx=0;entryDy=0;" edge="1" parent="1" source="Jk3VmdqZ1B0lNmlgHPxo-1" target="Jk3VmdqZ1B0lNmlgHPxo-37">
          <mxGeometry width="50" height="50" relative="1" as="geometry">
            <mxPoint x="210" y="210" as="sourcePoint" />
            <mxPoint x="338" y="150" as="targetPoint" />
          </mxGeometry>
        </mxCell>
        <mxCell id="Jk3VmdqZ1B0lNmlgHPxo-39" value="" style="endArrow=none;html=1;rounded=0;exitX=1;exitY=0.5;exitDx=0;exitDy=0;entryX=0;entryY=1;entryDx=0;entryDy=0;" edge="1" parent="1" source="Jk3VmdqZ1B0lNmlgHPxo-37" target="Jk3VmdqZ1B0lNmlgHPxo-2">
          <mxGeometry width="50" height="50" relative="1" as="geometry">
            <mxPoint x="250" y="250" as="sourcePoint" />
            <mxPoint x="420" y="310" as="targetPoint" />
          </mxGeometry>
        </mxCell>
        <mxCell id="Jk3VmdqZ1B0lNmlgHPxo-40" value="1" style="text;html=1;strokeColor=none;fillColor=none;align=center;verticalAlign=middle;whiteSpace=wrap;rounded=0;" vertex="1" parent="1">
          <mxGeometry x="270" y="260" width="60" height="30" as="geometry" />
        </mxCell>
        <mxCell id="Jk3VmdqZ1B0lNmlgHPxo-41" value="n" style="text;html=1;strokeColor=none;fillColor=none;align=center;verticalAlign=middle;whiteSpace=wrap;rounded=0;" vertex="1" parent="1">
          <mxGeometry x="520" y="260" width="60" height="30" as="geometry" />
        </mxCell>
        <mxCell id="Jk3VmdqZ1B0lNmlgHPxo-42" value="1 user has many contacts&lt;br&gt;" style="text;html=1;strokeColor=none;fillColor=none;align=center;verticalAlign=middle;whiteSpace=wrap;rounded=0;" vertex="1" parent="1">
          <mxGeometry x="330" y="200" width="200" height="30" as="geometry" />
        </mxCell>
      </root>
    </mxGraphModel>
  </diagram>
</mxfile>
